<svg width="885" height="128" viewBox="0 0 885 128" fill="none" xmlns="http://www.w3.org/2000/svg">
<rect width="885" height="128" fill="#051A5D"/>
<rect x="45" width="4" height="25" rx="2" fill="#C20000"/>
<rect x="57" width="4" height="19" rx="2" fill="#C20000"/>
<rect x="69" width="4" height="15" rx="2" fill="#C20000"/>
<rect x="81" width="4" height="10" rx="2" fill="#C20000"/>
<rect x="93" width="4" height="128" rx="2" fill="#C20000"/>
<rect x="33" width="4" height="128" rx="2" fill="#C20000"/>
<rect x="81" y="120" width="4" height="8" rx="2" fill="#C20000"/>
<rect x="69" y="120" width="4" height="8" rx="2" fill="#C20000"/>
<rect x="57" y="48" width="4" height="80" rx="2" fill="#C20000"/>
<rect x="45" y="51" width="4" height="77" rx="2" fill="#C20000"/>
<rect x="129" y="120" width="4" height="8" rx="2" fill="#6DC200"/>
<rect x="129" y="45" width="4" height="36" rx="2" fill="#6DC200"/>
<rect x="129" width="4" height="15" rx="2" fill="#6DC200"/>
<rect x="117" width="4" height="25" rx="2" fill="#6DC200"/>
<rect x="117" y="41" width="4" height="52" rx="2" fill="#6DC200"/>
<rect x="117" y="120" width="4" height="8" rx="2" fill="#6DC200"/>
<rect x="141" y="120" width="4" height="8" rx="2" fill="#6DC200"/>
<rect x="141" y="38" width="4" height="35" rx="2" fill="#6DC200"/>
<rect x="141" width="4" height="10" rx="2" fill="#6DC200"/>
<rect x="153" width="4" height="10" rx="2" fill="#6DC200"/>
<rect x="153" y="34" width="4" height="21" rx="2" fill="#6DC200"/>
<rect x="153" y="120" width="4" height="8" rx="2" fill="#6DC200"/>
<rect x="165" y="120" width="4" height="8" rx="2" fill="#6DC200"/>
<rect x="165" y="77" width="4" height="16" rx="2" fill="#6DC200"/>
<rect x="165" width="4" height="15" rx="2" fill="#6DC200"/>
<rect x="177" y="120" width="4" height="8" rx="2" fill="#6DC200"/>
<rect x="177" y="60" width="4" height="33" rx="2" fill="#6DC200"/>
<rect x="177" width="4" height="25" rx="2" fill="#6DC200"/>
<rect x="200" y="34" width="4" height="53" rx="2" fill="#FFE600"/>
<rect x="200" y="112" width="4" height="16" rx="2" fill="#FFE600"/>
<rect x="200" width="4" height="18" rx="2" fill="#FFE600"/>
<rect x="212" y="118" width="4" height="10" rx="2" fill="#FFE600"/>
<rect x="212" y="40" width="4" height="47" rx="2" fill="#FFE600"/>
<rect x="212" width="4" height="12" rx="2" fill="#FFE600"/>
<rect x="224" y="120" width="4" height="8" rx="2" fill="#FFE600"/>
<rect x="224" width="4" height="10" rx="2" fill="#FFE600"/>
<rect x="224" y="75" width="4" height="18" rx="2" fill="#FFE600"/>
<rect x="224" y="34" width="4" height="16" rx="2" fill="#FFE600"/>
<rect x="236" y="81" width="4" height="12" rx="2" fill="#FFE600"/>
<rect x="236" y="36" width="4" height="12" rx="2" fill="#FFE600"/>
<rect x="236" y="120" width="4" height="8" rx="2" fill="#FFE600"/>
<rect x="236" width="4" height="10" rx="2" fill="#FFE600"/>
<rect x="248" y="118" width="4" height="10" rx="2" fill="#FFE600"/>
<rect x="248" width="4" height="12" rx="2" fill="#FFE600"/>
<rect x="260" y="100" width="4" height="28" rx="2" fill="#FFE600"/>
<rect x="260" width="4" height="27" rx="2" fill="#FFE600"/>
<rect x="260" y="53" width="4" height="13" rx="2" fill="#FFE600"/>
<rect x="284" y="96" width="4" height="32" rx="2" fill="#00A3FF"/>
<rect x="284" width="4" height="61" rx="2" fill="#00A3FF"/>
<rect x="296" y="96" width="4" height="32" rx="2" fill="#00A3FF"/>
<rect x="296" width="4" height="48" rx="2" fill="#00A3FF"/>
<rect x="308" y="96" width="4" height="32" rx="2" fill="#00A3FF"/>
<rect x="308" width="4" height="31" rx="2" fill="#00A3FF"/>
<rect x="308" y="67" width="4" height="7" rx="2" fill="#00A3FF"/>
<rect x="320" y="61" width="4" height="13" rx="2" fill="#00A3FF"/>
<rect x="320" y="120" width="4" height="8" rx="2" fill="#00A3FF"/>
<rect x="320" width="4" height="12" rx="2" fill="#00A3FF"/>
<rect x="332" y="120" width="4" height="8" rx="2" fill="#00A3FF"/>
<rect x="332" width="4" height="10" rx="2" fill="#00A3FF"/>
<rect x="344" width="4" height="68" rx="2" fill="#00A3FF"/>
<rect x="344" y="96" width="4" height="32" rx="2" fill="#00A3FF"/>
<rect x="368" width="4" height="79" rx="2" fill="#BF00C2"/>
<rect x="380" width="4" height="10" rx="2" fill="#BF00C2"/>
<rect x="392" width="4" height="10" rx="2" fill="#BF00C2"/>
<rect x="404" width="4" height="10" rx="2" fill="#BF00C2"/>
<rect x="416" width="4" height="10" rx="2" fill="#BF00C2"/>
<rect x="428" width="4" height="10" rx="2" fill="#BF00C2"/>
<rect x="428" y="36" width="4" height="19" rx="2" fill="#BF00C2"/>
<rect x="416" y="36" width="4" height="12" rx="2" fill="#BF00C2"/>
<rect x="404" y="36" width="4" height="9" rx="2" fill="#BF00C2"/>
<rect x="392" y="36" width="4" height="9" rx="2" fill="#BF00C2"/>
<rect x="380" y="68" width="4" height="19" rx="2" fill="#BF00C2"/>
<rect x="416" y="77" width="4" height="9" rx="2" fill="#BF00C2"/>
<rect x="392" y="68" width="4" height="28" rx="2" fill="#BF00C2"/>
<rect x="404" y="68" width="4" height="28" rx="2" fill="#BF00C2"/>
<rect x="428" y="110" width="4" height="18" rx="2" fill="#BF00C2"/>
<rect x="416" y="116" width="4" height="12" rx="2" fill="#BF00C2"/>
<rect x="404" y="120" width="4" height="8" rx="2" fill="#BF00C2"/>
<rect x="392" y="120" width="4" height="8" rx="2" fill="#BF00C2"/>
<rect x="380" y="116" width="4" height="12" rx="2" fill="#BF00C2"/>
<rect x="368" y="109" width="4" height="19" rx="2" fill="#BF00C2"/>
<rect x="452" y="99" width="4" height="29" rx="2" fill="#A57F20"/>
<rect x="452" width="4" height="30" rx="2" fill="#A57F20"/>
<rect x="464" width="4" height="15" rx="2" fill="#A57F20"/>
<rect x="464" y="116" width="4" height="12" rx="2" fill="#A57F20"/>
<rect x="476" y="120" width="4" height="8" rx="2" fill="#A57F20"/>
<rect x="476" width="4" height="12" rx="2" fill="#A57F20"/>
<rect x="488" y="120" width="4" height="8" rx="2" fill="#A57F20"/>
<rect x="488" width="4" height="10" rx="2" fill="#A57F20"/>
<rect x="500" y="116" width="4" height="12" rx="2" fill="#A57F20"/>
<rect x="500" width="4" height="12" rx="2" fill="#A57F20"/>
<rect x="512" y="104" width="4" height="24" rx="2" fill="#A57F20"/>
<rect x="512" width="4" height="19" rx="2" fill="#A57F20"/>
<rect x="512" y="38" width="4" height="19" rx="2" fill="#A57F20"/>
<rect x="500" y="34" width="4" height="17" rx="2" fill="#A57F20"/>
<rect x="488" y="32" width="4" height="13" rx="2" fill="#A57F20"/>
<rect x="488" y="69" width="4" height="24" rx="2" fill="#A57F20"/>
<rect x="476" y="40" width="4" height="9" rx="2" fill="#A57F20"/>
<rect x="476" y="69" width="4" height="20" rx="2" fill="#A57F20"/>
<rect x="537" width="4" height="10" rx="2" fill="#FF5C00"/>
<rect x="537" y="40" width="4" height="88" rx="2" fill="#FF5C00"/>
<rect x="549" width="4" height="10" rx="2" fill="#FF5C00"/>
<rect x="549" y="40" width="4" height="41" rx="2" fill="#FF5C00"/>
<rect x="549" y="120" width="4" height="8" rx="2" fill="#FF5C00"/>
<rect x="561" width="4" height="10" rx="2" fill="#FF5C00"/>
<rect x="561" y="40" width="4" height="26" rx="2" fill="#FF5C00"/>
<rect x="561" y="120" width="4" height="8" rx="2" fill="#FF5C00"/>
<rect x="573" width="4" height="10" rx="2" fill="#FF5C00"/>
<rect x="573" y="101" width="4" height="27" rx="2" fill="#FF5C00"/>
<rect x="585" y="73" width="4" height="55" rx="2" fill="#FF5C00"/>
<rect x="585" width="4" height="10" rx="2" fill="#FF5C00"/>
<rect x="597" width="4" height="10" rx="2" fill="#FF5C00"/>
<rect x="597" y="38" width="4" height="90" rx="2" fill="#FF5C00"/>
<rect x="621" width="4" height="28" rx="2" fill="#FF9900"/>
<rect x="633" width="4" height="15" rx="2" fill="#FF9900"/>
<rect x="645" width="4" height="10" rx="2" fill="#FF9900"/>
<rect x="657" width="4" height="10" rx="2" fill="#FF9900"/>
<rect x="669" width="4" height="15" rx="2" fill="#FF9900"/>
<rect x="681" width="4" height="28" rx="2" fill="#FF9900"/>
<rect x="681" y="107" width="4" height="21" rx="2" fill="#FF9900"/>
<rect x="669" y="113" width="4" height="15" rx="2" fill="#FF9900"/>
<rect x="657" y="120" width="4" height="8" rx="2" fill="#FF9900"/>
<rect x="645" y="120" width="4" height="8" rx="2" fill="#FF9900"/>
<rect x="633" y="113" width="4" height="15" rx="2" fill="#FF9900"/>
<rect x="621" y="107" width="4" height="21" rx="2" fill="#FF9900"/>
<rect x="621" y="49" width="4" height="24" rx="2" fill="#FF9900"/>
<rect x="681" y="49" width="4" height="24" rx="2" fill="#FF9900"/>
<rect x="645" y="35" width="4" height="11" rx="2" fill="#FF9900"/>
<rect x="657" y="35" width="4" height="11" rx="2" fill="#FF9900"/>
<rect x="657" y="79" width="4" height="13" rx="2" fill="#FF9900"/>
<rect x="645" y="79" width="4" height="13" rx="2" fill="#FF9900"/>
<rect x="705" width="4" height="28" rx="2" fill="#D7FFF0"/>
<rect x="717" width="4" height="15" rx="2" fill="#D7FFF0"/>
<rect x="729" width="4" height="10" rx="2" fill="#D7FFF0"/>
<rect x="741" width="4" height="10" rx="2" fill="#D7FFF0"/>
<rect x="729" y="120" width="4" height="8" rx="2" fill="#D7FFF0"/>
<rect x="741" y="120" width="4" height="8" rx="2" fill="#D7FFF0"/>
<rect x="753" width="4" height="15" rx="2" fill="#D7FFF0"/>
<rect x="717" y="116" width="4" height="12" rx="2" fill="#D7FFF0"/>
<rect x="717" y="81" width="4" height="14" rx="2" fill="#D7FFF0"/>
<rect x="729" y="85" width="4" height="14" rx="2" fill="#D7FFF0"/>
<rect x="729" y="38" width="4" height="22" rx="2" fill="#D7FFF0"/>
<rect x="741" y="84" width="4" height="14" rx="2" fill="#D7FFF0"/>
<rect x="741" y="38" width="4" height="22" rx="2" fill="#D7FFF0"/>
<rect x="753" y="116" width="4" height="12" rx="2" fill="#D7FFF0"/>
<rect x="765" width="4" height="32" rx="2" fill="#D7FFF0"/>
<rect x="705" y="108" width="4" height="20" rx="2" fill="#D7FFF0"/>
<rect x="705" y="69" width="4" height="23" rx="2" fill="#D7FFF0"/>
<rect x="765" y="96" width="4" height="32" rx="2" fill="#D7FFF0"/>
<rect x="789" width="4" height="28" rx="2" fill="#9C0000"/>
<rect x="801" width="4" height="15" rx="2" fill="#9C0000"/>
<rect x="813" width="4" height="10" rx="2" fill="#9C0000"/>
<rect x="825" width="4" height="10" rx="2" fill="#9C0000"/>
<rect x="837" width="4" height="15" rx="2" fill="#9C0000"/>
<rect x="849" width="4" height="28" rx="2" fill="#9C0000"/>
<rect x="849" y="100" width="4" height="28" rx="2" fill="#9C0000"/>
<rect x="837" y="113" width="4" height="15" rx="2" fill="#9C0000"/>
<rect x="825" y="120" width="4" height="8" rx="2" fill="#9C0000"/>
<rect x="813" y="120" width="4" height="8" rx="2" fill="#9C0000"/>
<rect x="813" y="38" width="4" height="54" rx="2" fill="#9C0000"/>
<rect x="825" y="38" width="4" height="54" rx="2" fill="#9C0000"/>
<rect x="837" y="49" width="4" height="30" rx="2" fill="#9C0000"/>
<rect x="801" y="50" width="4" height="30" rx="2" fill="#9C0000"/>
<rect x="801" y="113" width="4" height="15" rx="2" fill="#9C0000"/>
<rect x="789" y="100" width="4" height="28" rx="2" fill="#9C0000"/>
</svg>
